# xmcd CD database file
#
# Track frame offsets:
#	170
#	8819
#	41394
#	80196
#	88972
#	109368
#	148439
#	173642
#	182761
#	208260
#	226081
#	236294
#	264032
#	273868
#
# Disc length: 3770 seconds
#
# Revision: 0
# Processed by: cddbd v1.4PL0 Copyright (c) Steve Scherf et al.
# Submitted via: CDex 1.51
#
DISCID=bc0eb80e
DTITLE=Lars Lindvall Tentet - 1-10
DYEAR=1900
DGENRE=Jazz
TTITLE0=Apple
TTITLE1=Komya
TTITLE2=Longing
TTITLE3=Trilla ej ned fran berget
TTITLE4=Phuh!
TTITLE5=Newland
TTITLE6=This one too!
TTITLE7=Min visa
TTITLE8=Got it?
TTITLE9=So what you say!
TTITLE10=Min visa
TTITLE11=Nasenfloetenkonzert
TTITLE12=Really fun, T!
TTITLE13=Apple
EXTD=
EXTT0=
EXTT1=
EXTT2=
EXTT3=
EXTT4=
EXTT5=
EXTT6=
EXTT7=
EXTT8=
EXTT9=
EXTT10=
EXTT11=
EXTT12=
EXTT13=
PLAYORDER=
